<svg width="735" height="181" viewBox="0 0 735 181" fill="none" xmlns="http://www.w3.org/2000/svg">
<path d="M18.8712 142V41.2H37.8792V81.232H40.4712L73.1592 41.2H97.4952L55.4472 90.88L98.9352 142H73.8792L40.4712 101.104H37.8792V142H18.8712ZM140.022 144.016C132.918 144.016 126.63 142.528 121.158 139.552C115.782 136.48 111.558 132.208 108.486 126.736C105.51 121.168 104.022 114.64 104.022 107.152V105.424C104.022 97.936 105.51 91.456 108.486 85.984C111.462 80.416 115.638 76.144 121.014 73.168C126.39 70.096 132.63 68.56 139.734 68.56C146.742 68.56 152.838 70.144 158.022 73.312C163.206 76.384 167.238 80.704 170.118 86.272C172.998 91.744 174.438 98.128 174.438 105.424V111.616H122.454C122.646 116.512 124.47 120.496 127.926 123.568C131.382 126.64 135.606 128.176 140.598 128.176C145.686 128.176 149.43 127.072 151.83 124.864C154.23 122.656 156.054 120.208 157.302 117.52L172.134 125.296C170.79 127.792 168.822 130.528 166.23 133.504C163.734 136.384 160.374 138.88 156.15 140.992C151.926 143.008 146.55 144.016 140.022 144.016ZM122.598 98.08H156.006C155.622 93.952 153.942 90.64 150.966 88.144C148.086 85.648 144.294 84.4 139.59 84.4C134.694 84.4 130.806 85.648 127.926 88.144C125.046 90.64 123.27 93.952 122.598 98.08ZM198.364 170.8V154.96H237.244C239.932 154.96 241.276 153.52 241.276 150.64V132.64H238.684C237.916 134.272 236.716 135.904 235.084 137.536C233.452 139.168 231.244 140.512 228.46 141.568C225.676 142.624 222.124 143.152 217.804 143.152C212.236 143.152 207.34 141.904 203.116 139.408C198.988 136.816 195.772 133.264 193.468 128.752C191.164 124.24 190.012 119.056 190.012 113.2V70.576H208.156V111.76C208.156 117.136 209.452 121.168 212.044 123.856C214.732 126.544 218.524 127.888 223.42 127.888C228.988 127.888 233.308 126.064 236.38 122.416C239.452 118.672 240.988 113.488 240.988 106.864V70.576H259.132V154.672C259.132 159.568 257.692 163.456 254.812 166.336C251.932 169.312 248.092 170.8 243.292 170.8H198.364ZM302.074 142V58.48H272.698V41.2H350.458V58.48H321.082V142H302.074ZM363.978 142V41.2H382.122V79.36H384.714C385.482 77.824 386.682 76.288 388.314 74.752C389.946 73.216 392.106 71.968 394.794 71.008C397.578 69.952 401.082 69.424 405.306 69.424C410.874 69.424 415.722 70.72 419.85 73.312C424.074 75.808 427.338 79.312 429.642 83.824C431.946 88.24 433.098 93.424 433.098 99.376V142H414.954V100.816C414.954 95.44 413.61 91.408 410.922 88.72C408.33 86.032 404.586 84.688 399.69 84.688C394.122 84.688 389.802 86.56 386.73 90.304C383.658 93.952 382.122 99.088 382.122 105.712V142H363.978ZM452.713 142V70.576H470.857V142H452.713ZM461.785 62.224C458.521 62.224 455.737 61.168 453.433 59.056C451.225 56.944 450.121 54.16 450.121 50.704C450.121 47.248 451.225 44.464 453.433 42.352C455.737 40.24 458.521 39.184 461.785 39.184C465.145 39.184 467.929 40.24 470.137 42.352C472.345 44.464 473.449 47.248 473.449 50.704C473.449 54.16 472.345 56.944 470.137 59.056C467.929 61.168 465.145 62.224 461.785 62.224ZM524.515 144.016C517.603 144.016 511.315 142.576 505.651 139.696C500.083 136.816 495.667 132.64 492.403 127.168C489.139 121.696 487.507 115.072 487.507 107.296V105.28C487.507 97.504 489.139 90.88 492.403 85.408C495.667 79.936 500.083 75.76 505.651 72.88C511.315 70 517.603 68.56 524.515 68.56C531.331 68.56 537.187 69.76 542.083 72.16C546.979 74.56 550.915 77.872 553.891 82.096C556.963 86.224 558.979 90.928 559.939 96.208L542.371 99.952C541.987 97.072 541.123 94.48 539.779 92.176C538.435 89.872 536.515 88.048 534.019 86.704C531.619 85.36 528.595 84.688 524.947 84.688C521.299 84.688 517.987 85.504 515.011 87.136C512.131 88.672 509.827 91.024 508.099 94.192C506.467 97.264 505.651 101.056 505.651 105.568V107.008C505.651 111.52 506.467 115.36 508.099 118.528C509.827 121.6 512.131 123.952 515.011 125.584C517.987 127.12 521.299 127.888 524.947 127.888C530.419 127.888 534.547 126.496 537.331 123.712C540.211 120.832 542.035 117.088 542.803 112.48L560.371 116.656C559.123 121.744 556.963 126.4 553.891 130.624C550.915 134.752 546.979 138.016 542.083 140.416C537.187 142.816 531.331 144.016 524.515 144.016ZM608.89 144.016C601.978 144.016 595.69 142.576 590.026 139.696C584.458 136.816 580.042 132.64 576.778 127.168C573.514 121.696 571.882 115.072 571.882 107.296V105.28C571.882 97.504 573.514 90.88 576.778 85.408C580.042 79.936 584.458 75.76 590.026 72.88C595.69 70 601.978 68.56 608.89 68.56C615.706 68.56 621.562 69.76 626.458 72.16C631.354 74.56 635.29 77.872 638.266 82.096C641.338 86.224 643.354 90.928 644.314 96.208L626.746 99.952C626.362 97.072 625.498 94.48 624.154 92.176C622.81 89.872 620.89 88.048 618.394 86.704C615.994 85.36 612.97 84.688 609.322 84.688C605.674 84.688 602.362 85.504 599.386 87.136C596.506 88.672 594.202 91.024 592.474 94.192C590.842 97.264 590.026 101.056 590.026 105.568V107.008C590.026 111.52 590.842 115.36 592.474 118.528C594.202 121.6 596.506 123.952 599.386 125.584C602.362 127.12 605.674 127.888 609.322 127.888C614.794 127.888 618.922 126.496 621.706 123.712C624.586 120.832 626.41 117.088 627.178 112.48L644.746 116.656C643.498 121.744 641.338 126.4 638.266 130.624C635.29 134.752 631.354 138.016 626.458 140.416C621.562 142.816 615.706 144.016 608.89 144.016Z" fill="#EEEEEE"/>
<path d="M677.388 55V31.1193H668.988V26.1785H691.222V31.1193H682.822V55H677.388ZM694.923 55V26.1785H705.011L709.993 51.2944H710.734L715.716 26.1785H725.803V55H720.533V30.1723H719.792L714.851 55H705.875L700.934 30.1723H700.193V55H694.923Z" fill="#EEEEEE"/>
</svg>
