<svg width="186" height="53" viewBox="0 0 186 53" fill="none" xmlns="http://www.w3.org/2000/svg">
<path d="M2.376 35V9.8H7.128V19.808H7.776L15.948 9.8H22.032L11.52 22.22L22.392 35H16.128L7.776 24.776H7.128V35H2.376ZM32.6638 35.504C30.8878 35.504 29.3158 35.132 27.9478 34.388C26.6038 33.62 25.5478 32.552 24.7798 31.184C24.0358 29.792 23.6638 28.16 23.6638 26.288V25.856C23.6638 23.984 24.0358 22.364 24.7798 20.996C25.5238 19.604 26.5678 18.536 27.9118 17.792C29.2558 17.024 30.8158 16.64 32.5918 16.64C34.3438 16.64 35.8678 17.036 37.1638 17.828C38.4598 18.596 39.4678 19.676 40.1878 21.068C40.9078 22.436 41.2678 24.032 41.2678 25.856V27.404H28.2718C28.3198 28.628 28.7758 29.624 29.6398 30.392C30.5038 31.16 31.5598 31.544 32.8078 31.544C34.0798 31.544 35.0158 31.268 35.6158 30.716C36.2158 30.164 36.6718 29.552 36.9838 28.88L40.6918 30.824C40.3558 31.448 39.8638 32.132 39.2158 32.876C38.5918 33.596 37.7518 34.22 36.6958 34.748C35.6398 35.252 34.2958 35.504 32.6638 35.504ZM28.3078 24.02H36.6598C36.5638 22.988 36.1438 22.16 35.3998 21.536C34.6798 20.912 33.7318 20.6 32.5558 20.6C31.3318 20.6 30.3598 20.912 29.6398 21.536C28.9198 22.16 28.4758 22.988 28.3078 24.02ZM47.2492 42.2V38.24H56.9692C57.6412 38.24 57.9772 37.88 57.9772 37.16V32.66H57.3292C57.1372 33.068 56.8372 33.476 56.4292 33.884C56.0212 34.292 55.4692 34.628 54.7732 34.892C54.0772 35.156 53.1892 35.288 52.1092 35.288C50.7172 35.288 49.4932 34.976 48.4372 34.352C47.4052 33.704 46.6012 32.816 46.0252 31.688C45.4492 30.56 45.1612 29.264 45.1612 27.8V17.144H49.6972V27.44C49.6972 28.784 50.0212 29.792 50.6692 30.464C51.3412 31.136 52.2892 31.472 53.5132 31.472C54.9052 31.472 55.9852 31.016 56.7532 30.104C57.5212 29.168 57.9052 27.872 57.9052 26.216V17.144H62.4412V38.168C62.4412 39.392 62.0812 40.364 61.3612 41.084C60.6412 41.828 59.6812 42.2 58.4812 42.2H47.2492ZM73.1768 35V14.12H65.8328V9.8H85.2728V14.12H77.9288V35H73.1768ZM88.6528 35V9.8H93.1888V19.34H93.8368C94.0288 18.956 94.3288 18.572 94.7368 18.188C95.1448 17.804 95.6848 17.492 96.3568 17.252C97.0528 16.988 97.9288 16.856 98.9848 16.856C100.377 16.856 101.589 17.18 102.621 17.828C103.677 18.452 104.493 19.328 105.069 20.456C105.645 21.56 105.933 22.856 105.933 24.344V35H101.397V24.704C101.397 23.36 101.061 22.352 100.389 21.68C99.7408 21.008 98.8048 20.672 97.5808 20.672C96.1888 20.672 95.1088 21.14 94.3408 22.076C93.5728 22.988 93.1888 24.272 93.1888 25.928V35H88.6528ZM110.836 35V17.144H115.372V35H110.836ZM113.104 15.056C112.288 15.056 111.592 14.792 111.016 14.264C110.464 13.736 110.188 13.04 110.188 12.176C110.188 11.312 110.464 10.616 111.016 10.088C111.592 9.56 112.288 9.296 113.104 9.296C113.944 9.296 114.64 9.56 115.192 10.088C115.744 10.616 116.02 11.312 116.02 12.176C116.02 13.04 115.744 13.736 115.192 14.264C114.64 14.792 113.944 15.056 113.104 15.056ZM128.787 35.504C127.059 35.504 125.487 35.144 124.071 34.424C122.679 33.704 121.575 32.66 120.759 31.292C119.943 29.924 119.535 28.268 119.535 26.324V25.82C119.535 23.876 119.943 22.22 120.759 20.852C121.575 19.484 122.679 18.44 124.071 17.72C125.487 17 127.059 16.64 128.787 16.64C130.491 16.64 131.955 16.94 133.179 17.54C134.403 18.14 135.387 18.968 136.131 20.024C136.899 21.056 137.403 22.232 137.643 23.552L133.251 24.488C133.155 23.768 132.939 23.12 132.603 22.544C132.267 21.968 131.787 21.512 131.163 21.176C130.563 20.84 129.807 20.672 128.895 20.672C127.983 20.672 127.155 20.876 126.411 21.284C125.691 21.668 125.115 22.256 124.683 23.048C124.275 23.816 124.071 24.764 124.071 25.892V26.252C124.071 27.38 124.275 28.34 124.683 29.132C125.115 29.9 125.691 30.488 126.411 30.896C127.155 31.28 127.983 31.472 128.895 31.472C130.263 31.472 131.295 31.124 131.991 30.428C132.711 29.708 133.167 28.772 133.359 27.62L137.751 28.664C137.439 29.936 136.899 31.1 136.131 32.156C135.387 33.188 134.403 34.004 133.179 34.604C131.955 35.204 130.491 35.504 128.787 35.504ZM149.881 35.504C148.153 35.504 146.581 35.144 145.165 34.424C143.773 33.704 142.669 32.66 141.853 31.292C141.037 29.924 140.629 28.268 140.629 26.324V25.82C140.629 23.876 141.037 22.22 141.853 20.852C142.669 19.484 143.773 18.44 145.165 17.72C146.581 17 148.153 16.64 149.881 16.64C151.585 16.64 153.049 16.94 154.273 17.54C155.497 18.14 156.481 18.968 157.225 20.024C157.993 21.056 158.497 22.232 158.737 23.552L154.345 24.488C154.249 23.768 154.033 23.12 153.697 22.544C153.361 21.968 152.881 21.512 152.257 21.176C151.657 20.84 150.901 20.672 149.989 20.672C149.077 20.672 148.249 20.876 147.505 21.284C146.785 21.668 146.209 22.256 145.777 23.048C145.369 23.816 145.165 24.764 145.165 25.892V26.252C145.165 27.38 145.369 28.34 145.777 29.132C146.209 29.9 146.785 30.488 147.505 30.896C148.249 31.28 149.077 31.472 149.989 31.472C151.357 31.472 152.389 31.124 153.085 30.428C153.805 29.708 154.261 28.772 154.453 27.62L158.845 28.664C158.533 29.936 157.993 31.1 157.225 32.156C156.481 33.188 155.497 34.004 154.273 34.604C153.049 35.204 151.585 35.504 149.881 35.504Z" fill="black"/>
<path d="M163.192 14V5.88H160.336V4.2H167.896V5.88H165.04V14H163.192ZM169.154 14V4.2H172.584L174.278 12.74H174.53L176.224 4.2H179.654V14H177.862V5.558H177.61L175.93 14H172.878L171.198 5.558H170.946V14H169.154Z" fill="black"/>
</svg>
