<svg width="20" height="18" viewBox="0 0 20 18" fill="none" xmlns="http://www.w3.org/2000/svg">
<path opacity="0.199151" fill-rule="evenodd" clip-rule="evenodd" d="M17.407 14.9932L18.707 16.2932C19.098 16.6842 19.098 17.3162 18.707 17.7073C18.512 17.9023 18.256 18.0002 18 18.0002C17.744 18.0002 17.488 17.9023 17.293 17.7073L14.586 15.0002L14 14.4143L12.655 13.0693L12.586 13.0002L10.0837 10.4979C10.056 10.4995 10.0281 10.5002 10 10.5002C9.173 10.5002 8.5 9.82725 8.5 9.00025C8.5 8.97217 8.50078 8.94426 8.50231 8.91656L5.283 5.69725L3.532 3.94625L1.293 1.70725C0.902 1.31625 0.902 0.68425 1.293 0.29325C1.684 -0.09775 2.316 -0.09775 2.707 0.29325L4.42 2.00625L5.885 3.47125L9.91631 7.50256C9.94401 7.50103 9.97192 7.50025 10 7.50025C10.827 7.50025 11.5 8.17325 11.5 9.00025C11.5 9.02833 11.4992 9.05624 11.4977 9.08394L15.414 13.0002L17.407 14.9932ZM6.5928 2.76445L9.3898 5.56145C9.5888 5.52645 9.7908 5.50045 9.9998 5.50045C11.9298 5.50045 13.4998 7.07045 13.4998 9.00045C13.4998 9.20945 13.4738 9.41145 13.4388 9.61045L16.1208 12.2934L16.9548 13.1274C18.4768 11.7394 19.4528 10.2204 19.8678 9.49745C20.0438 9.18945 20.0438 8.81045 19.8678 8.50245C19.2298 7.39045 15.7058 1.81645 9.7298 2.00345C8.5458 2.03445 7.4738 2.28945 6.5018 2.67445L6.5928 2.76445ZM11.948 13.7774L13.293 15.1214L13.498 15.3264C12.526 15.7114 11.455 15.9664 10.271 15.9964C10.189 15.9994 10.106 16.0004 10.025 16.0004C4.162 16.0004 0.762 10.5954 0.132 9.49735C-0.044 9.18935 -0.044 8.81035 0.132 8.50235C0.547 7.78035 1.523 6.26135 3.045 4.87335L4.576 6.40535L6.562 8.39035C6.526 8.58935 6.5 8.79135 6.5 9.00035C6.5 10.9303 8.07 12.5003 10 12.5003C10.209 12.5003 10.411 12.4743 10.61 12.4384L11.879 13.7073L11.948 13.7774Z" fill="black"/>
<mask id="mask0_420_2556" style="mask-type:alpha" maskUnits="userSpaceOnUse" x="0" y="0" width="20" height="19">
<path fill-rule="evenodd" clip-rule="evenodd" d="M17.407 14.9932L18.707 16.2932C19.098 16.6842 19.098 17.3162 18.707 17.7073C18.512 17.9023 18.256 18.0002 18 18.0002C17.744 18.0002 17.488 17.9023 17.293 17.7073L14.586 15.0002L14 14.4143L12.655 13.0693L12.586 13.0002L10.0837 10.4979C10.056 10.4995 10.0281 10.5002 10 10.5002C9.173 10.5002 8.5 9.82725 8.5 9.00025C8.5 8.97217 8.50078 8.94426 8.50231 8.91656L5.283 5.69725L3.532 3.94625L1.293 1.70725C0.902 1.31625 0.902 0.68425 1.293 0.29325C1.684 -0.09775 2.316 -0.09775 2.707 0.29325L4.42 2.00625L5.885 3.47125L9.91631 7.50256C9.94401 7.50103 9.97192 7.50025 10 7.50025C10.827 7.50025 11.5 8.17325 11.5 9.00025C11.5 9.02833 11.4992 9.05624 11.4977 9.08394L15.414 13.0002L17.407 14.9932ZM6.5928 2.76445L9.3898 5.56145C9.5888 5.52645 9.7908 5.50045 9.9998 5.50045C11.9298 5.50045 13.4998 7.07045 13.4998 9.00045C13.4998 9.20945 13.4738 9.41145 13.4388 9.61045L16.1208 12.2934L16.9548 13.1274C18.4768 11.7394 19.4528 10.2204 19.8678 9.49745C20.0438 9.18945 20.0438 8.81045 19.8678 8.50245C19.2298 7.39045 15.7058 1.81645 9.7298 2.00345C8.5458 2.03445 7.4738 2.28945 6.5018 2.67445L6.5928 2.76445ZM11.948 13.7774L13.293 15.1214L13.498 15.3264C12.526 15.7114 11.455 15.9664 10.271 15.9964C10.189 15.9994 10.106 16.0004 10.025 16.0004C4.162 16.0004 0.762 10.5954 0.132 9.49735C-0.044 9.18935 -0.044 8.81035 0.132 8.50235C0.547 7.78035 1.523 6.26135 3.045 4.87335L4.576 6.40535L6.562 8.39035C6.526 8.58935 6.5 8.79135 6.5 9.00035C6.5 10.9303 8.07 12.5003 10 12.5003C10.209 12.5003 10.411 12.4743 10.61 12.4384L11.879 13.7073L11.948 13.7774Z" fill="white"/>
</mask>
<g mask="url(#mask0_420_2556)">
</g>
</svg>
